<svg width="68" height="61" viewBox="0 0 68 61" fill="none" xmlns="http://www.w3.org/2000/svg">
<g filter="url(#filter0_d_1_66)">
<path d="M55.8 44C55.8 41.1 56.6001 38.4 58 36H28H16C11.5999 36 7.99994 39.6 7.99994 44C7.99994 48.4001 11.5999 52.0001 16 52.0001H28H58C56.5999 49.6 55.8 46.9 55.8 44Z" fill="#FFE100"/>
<path d="M7.99994 44C7.99994 39.6 11.5999 36 16 36H13C8.59994 36 4.99994 39.6 4.99994 44C4.99994 48.4001 8.59994 52.0001 13 52.0001H16C11.5999 52 7.99994 48.4 7.99994 44Z" fill="white"/>
<path d="M61 36H58C56.6 38.4 55.8 41.1 55.8 44C55.8 46.9001 56.6001 49.6001 58 52.0001H61C59.6 49.6001 58.8 46.9001 58.8 44C58.8 41.1 59.6 38.4 61 36Z" fill="#FFA800"/>
<path d="M4.99994 36H61V26.0001H4.99994V36Z" fill="#FFE100"/>
<path d="M4.99994 36H7.99994V26.0001H4.99994V36Z" fill="white"/>
<path d="M10 26.0001H58V16H10V26.0001Z" fill="#FFE100"/>
<path d="M7 16H56V8.00006H7V16Z" fill="#FFE100"/>
<path d="M7 16H10V8.00006H7V16Z" fill="white"/>
<path d="M10 26.0001H13V16H10V26.0001Z" fill="white"/>
<path d="M58 36H61V26.0001H58V36Z" fill="#FFA800"/>
<path d="M52.9999 16H55.9999V8.00006H52.9999V16Z" fill="#FFA800"/>
<path d="M55 26.0001H58V16H55V26.0001Z" fill="#FFA800"/>
<path d="M13 36H19V26.0001H13V36Z" fill="#FDCC00"/>
<path d="M51.0001 36H55V26.0001H51.0001V36Z" fill="#FDCC00"/>
<path d="M15.0001 16H21.0001V8.00006H15.0001V16Z" fill="#FDCC00"/>
<path d="M46 16H50V8.00006H46V16Z" fill="#FDCC00"/>
<path d="M16 26.0001H20V16H16V26.0001Z" fill="#FDCC00"/>
<path d="M61 53.0001H13C7.99996 53.0001 4 49.0001 4 44.0001C4 39 7.99996 35.0001 13 35.0001H61C61.4 35.0001 61.7 35.2001 61.9 35.5001C62.1 35.8001 62.1 36.2001 61.9 36.5001C60.6 38.8001 59.9 41.4 59.9 44.0001C59.9 46.6001 60.5999 49.2 61.9 51.5001C62.1 51.8001 62.1 52.2 61.9 52.5C61.7 52.8 61.4 53.0001 61 53.0001ZM13 37C9.1 37 6.00004 40.0999 6.00004 43.9999C6.00004 47.8999 9.1 51 13 51H59.4C58.4001 48.8001 57.9 46.4001 57.9 44.0001C57.9 41.6001 58.4001 39.2001 59.4 37.0001H13V37Z" fill="black"/>
<path d="M54.0001 45H25C24.4 45 24.0001 44.6001 24.0001 44.0001C24.0001 43.4001 24.4 43.0001 25 43.0001H54.0001C54.6001 43.0001 55 43.4001 55 44.0001C55 44.6001 54.6001 45 54.0001 45Z" fill="black"/>
<path d="M25.9999 49H13C10.2 49 7.99994 46.8 7.99994 43.9999C7.99994 41.2 10.1999 38.9999 13 38.9999H36C36.6 38.9999 37 39.3999 37 39.9999C37 40.5999 36.6 40.9998 36 40.9998H13C11.2999 40.9998 9.99998 42.2998 9.99998 43.9998C9.99998 45.6999 11.2999 46.9998 13 46.9998H25.9999C26.5999 46.9998 26.9999 47.3998 26.9999 47.9998C27 48.6 26.5999 49 25.9999 49Z" fill="black"/>
<path d="M61 41H40C39.4 41 39.0001 40.6001 39.0001 40.0001C39.0001 39.4001 39.4 39.0001 40 39.0001H61C61.6 39.0001 62 39.4001 62 40.0001C62 40.6001 61.6 41 61 41Z" fill="black"/>
<path d="M40 49H31C30.4 49 30.0001 48.6 30.0001 48C30.0001 47.4 30.4 47.0001 31 47.0001H40C40.6 47.0001 41 47.4 41 48C41 48.6 40.6 49 40 49Z" fill="black"/>
<path d="M61 49H45C44.4 49 44.0001 48.6 44.0001 48C44.0001 47.4 44.4 47.0001 45 47.0001H61C61.6 47.0001 61.9999 47.4 61.9999 48C61.9999 48.6 61.6 49 61 49Z" fill="black"/>
<path d="M20 45H14C13.4 45 13 44.6001 13 44.0001C13 43.4001 13.4 43.0001 14 43.0001H20C20.6 43.0001 20.9999 43.4001 20.9999 44.0001C21 44.6001 20.6 45 20 45Z" fill="black"/>
<path d="M61 37H4.99996C4.39996 37 4 36.6 4 36V26.0001C4 25.4001 4.39996 25.0001 4.99996 25.0001H61C61.6 25.0001 62 25.4001 62 26.0001V36C62 36.6 61.6 37 61 37ZM6.00004 35.0001H60V27H6.00004V35.0001Z" fill="black"/>
<path d="M19 37H13C12.4 37 12.0001 36.6 12.0001 36V26.0001C12.0001 25.4001 12.4 25.0001 13 25.0001H19C19.6 25.0001 20 25.4001 20 26.0001V36C20 36.6 19.6 37 19 37ZM14 35.0001H17.9999V27H14V35.0001Z" fill="black"/>
<path d="M45 32H26C25.4 32 25 31.6001 25 31.0001C25 30.4001 25.4 30.0001 26 30.0001H44.9999C45.5999 30.0001 45.9999 30.4001 45.9999 31.0001C46 31.6 45.6 32 45 32Z" fill="black"/>
<path d="M55 37H51C50.4 37 50.0001 36.6 50.0001 36V26.0001C50.0001 25.4001 50.4 25.0001 51 25.0001H55C55.6 25.0001 55.9999 25.4001 55.9999 26.0001V36C55.9999 36.6 55.6 37 55 37ZM52 35.0001H54V27H52V35.0001Z" fill="black"/>
<path d="M56 17.0001H7.00002C6.40002 17.0001 6.00006 16.6001 6.00006 16.0001V8.00005C6.00006 7.40005 6.40002 7.00009 7.00002 7.00009H56C56.6 7.00009 56.9999 7.40005 56.9999 8.00005V16.0001C57.0001 16.6 56.6 17.0001 56 17.0001ZM7.99998 15H55V9.00001H7.99998V15Z" fill="black"/>
<path d="M21 17.0001H15C14.4 17.0001 14.0001 16.6001 14.0001 16.0001V8.00005C14.0001 7.40005 14.4 7.00009 15 7.00009H21C21.6 7.00009 22 7.40005 22 8.00005V16.0001C22 16.6 21.6 17.0001 21 17.0001ZM16 15H19.9999V9.00001H16V15Z" fill="black"/>
<path d="M40 13H28C27.4 13 27.0001 12.6 27.0001 12C27.0001 11.4 27.4 11.0001 28 11.0001H40C40.6 11.0001 41 11.4 41 12C41 12.6 40.6 13 40 13Z" fill="black"/>
<path d="M50 17.0001H46C45.4 17.0001 45.0001 16.6001 45.0001 16.0001V8.00005C45.0001 7.40005 45.4 7.00009 46 7.00009H50C50.6 7.00009 50.9999 7.40005 50.9999 8.00005V16.0001C51.0001 16.6 50.6 17.0001 50 17.0001ZM47 15H49V9.00001H47V15Z" fill="black"/>
<path d="M58 27H10C9.40002 27 9.00006 26.6 9.00006 26V16.0001C9.00006 15.4001 9.40002 15.0001 10 15.0001H58C58.6 15.0001 59 15.4001 59 16.0001V26C59 26.6 58.6 27 58 27ZM11 25H56.9999V16.9999H11V25Z" fill="black"/>
<path d="M20 27H16C15.4 27 15.0001 26.6 15.0001 26V16.0001C15.0001 15.4001 15.4 15.0001 16 15.0001H20C20.6 15.0001 20.9999 15.4001 20.9999 16.0001V26C21.0001 26.6 20.6 27 20 27ZM17 25H19V16.9999H17V25Z" fill="black"/>
<path d="M54 22H26C25.4 22 25 21.6 25 21C25 20.4 25.4 20.0001 26 20.0001H53.9999C54.5999 20.0001 54.9999 20.4 54.9999 21C55 21.6 54.6 22 54 22Z" fill="black"/>
<path d="M63 37H54C53.4 37 53.0001 36.6 53.0001 36C53.0001 35.4 53.4 35.0001 54 35.0001H63C63.6 35.0001 64 35.4 64 36C64 36.6 63.6 37 63 37Z" fill="black"/>
<path d="M63 53H54C53.4 53 53.0001 52.6001 53.0001 52.0001C53.0001 51.4001 53.4 51.0001 54 51.0001H63C63.6 51.0001 64 51.4001 64 52.0001C64 52.6 63.6 53 63 53Z" fill="black"/>
<path d="M61.1 45H54.1C53.5 45 53.1 44.6001 53.1 44.0001C53.1 43.4001 53.5 43.0001 54.1 43.0001H61.1C61.7 43.0001 62.0999 43.4001 62.0999 44.0001C62.1 44.6001 61.6 45 61.1 45Z" fill="black"/>
</g>
<defs>
<filter id="filter0_d_1_66" x="0" y="0" width="68" height="68" filterUnits="userSpaceOnUse" color-interpolation-filters="sRGB">
<feFlood flood-opacity="0" result="BackgroundImageFix"/>
<feColorMatrix in="SourceAlpha" type="matrix" values="0 0 0 0 0 0 0 0 0 0 0 0 0 0 0 0 0 0 127 0" result="hardAlpha"/>
<feOffset dy="4"/>
<feGaussianBlur stdDeviation="2"/>
<feComposite in2="hardAlpha" operator="out"/>
<feColorMatrix type="matrix" values="0 0 0 0 0 0 0 0 0 0 0 0 0 0 0 0 0 0 0.25 0"/>
<feBlend mode="normal" in2="BackgroundImageFix" result="effect1_dropShadow_1_66"/>
<feBlend mode="normal" in="SourceGraphic" in2="effect1_dropShadow_1_66" result="shape"/>
</filter>
</defs>
</svg>
