<svg width="44" height="44" viewBox="0 0 44 44" fill="none" xmlns="http://www.w3.org/2000/svg">
<path opacity="0.5" d="M22 44C32.8173 44 41.5864 41.825 41.5864 39.1419C41.5864 36.4589 32.8173 34.2838 22 34.2838C11.1828 34.2838 2.41364 36.4589 2.41364 39.1419C2.41364 41.825 11.1828 44 22 44Z" fill="#B8CBCD"/>
<path d="M7.89823 6.83005L5.95705 36.1942C5.89543 37.098 6.58357 37.8375 7.4874 37.8375H37.4164C38.3203 37.8375 38.9981 37.098 38.9262 36.1942L36.5948 6.39868" fill="#FFBAB0"/>
<path d="M37.4164 39.07H7.4874C6.70682 39.07 5.98787 38.7619 5.46406 38.197C4.94025 37.6321 4.67321 36.8926 4.73483 36.112L6.66574 6.74788C6.70682 6.07001 7.29225 5.55647 7.9804 5.59756C8.65827 5.63864 9.17181 6.23435 9.13072 6.91222L7.18955 36.2764C7.17928 36.3996 7.23063 36.4715 7.26144 36.5126C7.30252 36.5537 7.37442 36.605 7.4874 36.605H37.4164C37.5089 36.605 37.5808 36.5742 37.6321 36.5229C37.6732 36.4818 37.7143 36.4099 37.704 36.2969L35.3726 6.50139C35.3212 5.82351 35.8245 5.22781 36.5023 5.17646C37.1802 5.1251 37.7759 5.62837 37.8273 6.30624L40.1587 36.1018C40.2204 36.8721 39.9636 37.6424 39.4398 38.197C38.916 38.7619 38.197 39.07 37.4164 39.07Z" fill="#783741"/>
<path d="M15.2932 16.4641C16.8814 16.4641 18.169 15.1765 18.169 13.5882C18.169 12 16.8814 10.7124 15.2932 10.7124C13.7049 10.7124 12.4174 12 12.4174 13.5882C12.4174 15.1765 13.7049 16.4641 15.2932 16.4641Z" fill="white"/>
<path d="M15.2932 17.2857C13.2493 17.2857 11.5957 15.6321 11.5957 13.5882C11.5957 11.5443 13.2493 9.89075 15.2932 9.89075C17.3371 9.89075 18.9907 11.5443 18.9907 13.5882C18.9907 15.6321 17.3371 17.2857 15.2932 17.2857ZM15.2932 11.5341C14.1634 11.5341 13.239 12.4584 13.239 13.5882C13.239 14.718 14.1634 15.6424 15.2932 15.6424C16.423 15.6424 17.3473 14.718 17.3473 13.5882C17.3473 12.4584 16.423 11.5341 15.2932 11.5341Z" fill="#783741"/>
<path d="M28.8506 16.4641C30.4389 16.4641 31.7264 15.1765 31.7264 13.5882C31.7264 12 30.4389 10.7124 28.8506 10.7124C27.2623 10.7124 25.9748 12 25.9748 13.5882C25.9748 15.1765 27.2623 16.4641 28.8506 16.4641Z" fill="white"/>
<path d="M28.8506 17.2857C26.8067 17.2857 25.1531 15.6321 25.1531 13.5882C25.1531 11.5443 26.8067 9.89075 28.8506 9.89075C30.8945 9.89075 32.5481 11.5443 32.5481 13.5882C32.5481 15.6321 30.8945 17.2857 28.8506 17.2857ZM28.8506 11.5341C27.7208 11.5341 26.7964 12.4584 26.7964 13.5882C26.7964 14.718 27.7208 15.6424 28.8506 15.6424C29.9804 15.6424 30.9047 14.718 30.9047 13.5882C30.9047 12.4584 29.9804 11.5341 28.8506 11.5341Z" fill="#783741"/>
<path d="M22.0719 28.5836C17.8814 28.5836 14.4715 25.1737 14.4715 20.9832V13.9991C14.4715 13.5471 14.8412 13.1774 15.2932 13.1774C15.7451 13.1774 16.1148 13.5471 16.1148 13.9991V20.9832C16.1148 24.2698 18.7852 26.9402 22.0719 26.9402C25.3585 26.9402 28.0289 24.2698 28.0289 20.9832V13.9991C28.0289 13.5471 28.3987 13.1774 28.8506 13.1774C29.3025 13.1774 29.6722 13.5471 29.6722 13.9991V20.9832C29.6722 25.1737 26.2623 28.5836 22.0719 28.5836Z" fill="#783741"/>
<path opacity="0.2" d="M12.0065 6.6041L10.3632 37.4164L5.43323 37.0056L7.89821 6.6041H12.0065Z" fill="#783741"/>
<path d="M36.6564 6.60412L34.9001 1.99254C34.7358 1.57144 34.2325 1.22223 33.7806 1.22223H11.1849C10.733 1.22223 10.2091 1.56116 10.0243 1.972L7.89822 6.60412" fill="#FFBAB0"/>
<path d="M36.6564 7.8366C36.1634 7.8366 35.6909 7.53875 35.5061 7.04575L33.7703 2.48553C33.76 2.47526 33.7498 2.46499 33.7395 2.46499H11.2157C11.1849 2.47526 11.1541 2.4958 11.1335 2.51634L9.01773 7.12792C8.73015 7.74416 8.00093 8.02148 7.38468 7.73389C6.76843 7.44631 6.49112 6.71709 6.7787 6.10084L8.90475 1.46872C9.28477 0.626517 10.2502 0 11.1849 0H33.7806C34.746 0 35.7012 0.65733 36.0504 1.55089L37.8067 6.17274C38.0532 6.80952 37.7245 7.51821 37.098 7.76471C36.9542 7.80579 36.8002 7.8366 36.6564 7.8366Z" fill="#783741"/>
<path d="M36.6564 7.42576H7.89823C7.44632 7.42576 7.07657 7.05602 7.07657 6.6041C7.07657 6.15219 7.44632 5.78244 7.89823 5.78244H36.6564C37.1083 5.78244 37.4781 6.15219 37.4781 6.6041C37.4781 7.05602 37.1083 7.42576 36.6564 7.42576Z" fill="#783741"/>
</svg>
