<svg width="44" height="44" viewBox="0 0 44 44" fill="none" xmlns="http://www.w3.org/2000/svg">
<path d="M26.9956 14.9529C29.8382 13.2695 31.2596 12.4277 32.3035 13.025C33.3474 13.6222 33.3223 15.2628 33.2724 18.5442L33.2596 19.393C33.2455 20.3254 33.2383 20.7917 33.4121 21.2014C33.5859 21.611 33.9209 21.9179 34.5908 22.5315L35.2005 23.0901C37.558 25.2496 38.7367 26.3292 38.4604 27.5418C38.1841 28.7542 36.6357 29.2965 33.5392 30.3809L32.738 30.6616C31.858 30.9698 31.418 31.1238 31.0805 31.4327C30.743 31.7418 30.5461 32.1706 30.1523 33.0281L29.7938 33.8089C28.408 36.8269 27.7152 38.3359 26.5006 38.4881C25.286 38.6403 24.354 37.3347 22.49 34.7237L22.0079 34.0481C21.4782 33.3062 21.2133 32.9353 20.8309 32.7164C20.4486 32.4977 19.9919 32.4559 19.0786 32.3723L18.2472 32.2962C15.0334 32.0021 13.4265 31.8549 12.9521 30.7366C12.4778 29.6181 13.4501 28.2689 15.3948 25.5708L15.8979 24.8727C16.4505 24.106 16.7268 23.7226 16.828 23.2784C16.9292 22.8344 16.8439 22.3797 16.6732 21.4704L16.5179 20.6426C15.9173 17.4427 15.6171 15.8428 16.5385 14.9995C17.4599 14.1561 18.9929 14.6278 22.0586 15.5712L22.8519 15.8153C23.7231 16.0834 24.1587 16.2174 24.6037 16.1617C25.0486 16.106 25.4525 15.8668 26.2603 15.3884L26.9956 14.9529Z" fill="#FDCC00"/>
<path opacity="0.5" fill-rule="evenodd" clip-rule="evenodd" d="M16.4444 3.61107C16.9814 3.0741 17.852 3.0741 18.3889 3.61107L22.0556 7.27773C22.5925 7.8147 22.5925 8.68531 22.0556 9.22228C21.5186 9.75924 20.6481 9.75924 20.1111 9.22228L16.4444 5.55561C15.9074 5.01865 15.9074 4.14803 16.4444 3.61107ZM6.36108 6.36107C6.89804 5.8241 7.76866 5.8241 8.30562 6.36107L12.889 10.9444C13.4259 11.4814 13.4259 12.352 12.889 12.8889C12.352 13.4259 11.4814 13.4259 10.9444 12.8889L6.36108 8.30561C5.82411 7.76865 5.82411 6.89803 6.36108 6.36107ZM22.8611 10.0277C23.3981 9.49077 24.2686 9.49077 24.8056 10.0277L25.7222 10.9444C26.2592 11.4814 26.2592 12.352 25.7222 12.8889C25.1852 13.4259 24.3148 13.4259 23.7778 12.8889L22.8611 11.9723C22.3241 11.4353 22.3241 10.5647 22.8611 10.0277ZM2.69441 13.6944C3.23138 13.1574 4.10199 13.1574 4.63895 13.6944L5.55562 14.6111C6.09259 15.148 6.09259 16.0186 5.55562 16.5556C5.01866 17.0926 4.14804 17.0926 3.61108 16.5556L2.69441 15.6389C2.15745 15.102 2.15745 14.2314 2.69441 13.6944ZM7.27774 18.2777C7.81471 17.7408 8.68532 17.7408 9.22229 18.2777L11.9723 21.0278C12.5093 21.5648 12.5093 22.4352 11.9723 22.9722C11.4353 23.5092 10.5647 23.5092 10.0277 22.9722L7.27774 20.2222C6.74078 19.6852 6.74078 18.8148 7.27774 18.2777Z" fill="#1C274C"/>
</svg>
